<svg width="45" height="45" viewBox="0 0 45 45" fill="none" xmlns="http://www.w3.org/2000/svg">
<path fill-rule="evenodd" clip-rule="evenodd" d="M22.5 0.46875C10.352 0.46875 0.46875 10.352 0.46875 22.5C0.46875 34.648 10.352 44.5312 22.5 44.5312C34.648 44.5312 44.5312 34.648 44.5312 22.5C44.5312 10.352 34.648 0.46875 22.5 0.46875ZM22.5006 40.125C12.7826 40.125 4.87559 32.218 4.87559 22.5C4.87559 12.7821 12.7826 4.87504 22.5006 4.87504C32.2186 4.87504 40.1256 12.7821 40.1256 22.5C40.1256 32.218 32.2186 40.125 22.5006 40.125ZM22.4499 15.8896C22.5072 15.8918 23.8798 15.9777 25.3492 17.4494C26.2107 18.3086 27.6052 18.3086 28.4645 17.4494C29.3259 16.588 29.3259 15.1934 28.4645 14.332C27.136 13.0035 25.7899 12.3029 24.7037 11.9262V11.4833C24.7037 10.2672 23.7189 9.28021 22.5006 9.28021C21.2845 9.28021 20.2975 10.2672 20.2975 11.4833V11.8909C17.7396 12.803 15.8912 15.2264 15.8912 18.0927C15.8912 23.118 19.696 24.0698 21.9674 24.6382C24.4239 25.2529 24.7037 25.4842 24.7037 26.9052C24.7037 28.1213 23.7167 29.1083 22.5535 29.1105C22.4962 29.1083 21.1214 29.0224 19.652 27.5507C18.7927 26.6915 17.3982 26.6915 16.5367 27.5507C15.6775 28.4121 15.6775 29.8067 16.5367 30.6681C17.8674 31.9966 19.2135 32.6972 20.2975 33.074V33.5146C20.2975 34.7329 21.2845 35.7177 22.5006 35.7177C23.7189 35.7177 24.7037 34.7329 24.7037 33.5146V33.1092C27.2638 32.1971 29.11 29.7737 29.11 26.9052C29.11 21.8821 25.3074 20.9303 23.036 20.3619C20.5795 19.7473 20.2975 19.5159 20.2975 18.0927C20.2975 16.8788 21.2867 15.8896 22.4499 15.8896Z" fill="white"/>
</svg>
