<svg width="191" height="63" viewBox="0 0 191 63" fill="none" xmlns="http://www.w3.org/2000/svg">
<path fill-rule="evenodd" clip-rule="evenodd" d="M0.82959 31.6889C0.82959 14.3963 14.848 0.37793 32.1405 0.37793H191V24.1688C191 45.6146 173.615 62.9998 152.169 62.9998H32.1405C14.848 62.9998 0.82959 48.9814 0.82959 31.6889ZM32.1405 4.4654C17.1054 4.4654 4.91706 16.6538 4.91706 31.6889C4.91706 46.724 17.1054 58.9123 32.1405 58.9123H152.169C171.357 58.9123 186.912 43.3571 186.912 24.1688V4.4654H32.1405Z" fill="white"/>
<path fill-rule="evenodd" clip-rule="evenodd" d="M33.7666 12.3804C23.1201 12.3804 14.4584 21.042 14.4584 31.6886C14.4584 42.3352 23.1201 50.9968 33.7666 50.9968C44.4132 50.9968 53.0749 42.3352 53.0749 31.6886C53.0749 21.042 44.4132 12.3804 33.7666 12.3804ZM33.7672 47.1352C25.2503 47.1352 18.3206 40.2055 18.3206 31.6886C18.3206 23.1718 25.2503 16.242 33.7672 16.242C42.284 16.242 49.2137 23.1718 49.2137 31.6886C49.2137 40.2055 42.284 47.1352 33.7672 47.1352ZM33.7228 25.8952C33.773 25.8972 34.9759 25.9725 36.2637 27.2622C37.0187 28.0153 38.2409 28.0153 38.9939 27.2622C39.7489 26.5073 39.7489 25.2851 38.9939 24.5301C37.8296 23.3658 36.6499 22.7518 35.698 22.4217V22.0336C35.698 20.9678 34.8349 20.1028 33.7672 20.1028C32.7014 20.1028 31.8363 20.9678 31.8363 22.0336V22.3908C29.5947 23.1901 27.9747 25.314 27.9747 27.826C27.9747 32.2302 31.3092 33.0644 33.2999 33.5625C35.4528 34.1012 35.698 34.304 35.698 35.5493C35.698 36.6151 34.833 37.4802 33.8135 37.4821C33.7633 37.4802 32.5585 37.4049 31.2706 36.1151C30.5176 35.362 29.2954 35.362 28.5404 36.1151C27.7874 36.87 27.7874 38.0922 28.5404 38.8472C29.7067 40.0115 30.8864 40.6255 31.8363 40.9556V41.3418C31.8363 42.4095 32.7014 43.2726 33.7672 43.2726C34.8349 43.2726 35.698 42.4095 35.698 41.3418V40.9865C37.9416 40.1872 39.5596 38.0633 39.5596 35.5493C39.5596 31.1471 36.227 30.3129 34.2364 29.8148C32.0835 29.2761 31.8363 29.0734 31.8363 27.826C31.8363 26.7622 32.7033 25.8952 33.7228 25.8952Z" fill="white"/>
<path d="M71.8091 20.9709V22.0186H65.6914V13.5888H71.6405V14.6365H66.8957V17.2257H71.1226V18.2493H66.8957V20.9709H71.8091Z" fill="white"/>
<path d="M81.5747 15.5758C82.3776 15.5758 83.0118 15.8086 83.4775 16.2743C83.9512 16.7399 84.188 17.4304 84.188 18.3456V22.0186H83.0319V18.4781C83.0319 17.8599 82.8874 17.3943 82.5984 17.0812C82.3174 16.768 81.9119 16.6115 81.3821 16.6115C80.796 16.6115 80.3303 16.7961 79.9851 17.1654C79.6399 17.5267 79.4673 18.0486 79.4673 18.731V22.0186H78.3112V18.4781C78.3112 17.8599 78.1667 17.3943 77.8776 17.0812C77.5966 16.768 77.1912 16.6115 76.6613 16.6115C76.0752 16.6115 75.6096 16.7961 75.2644 17.1654C74.9191 17.5267 74.7465 18.0486 74.7465 18.731V22.0186H73.5904V15.636H74.6984V16.5874C74.9312 16.2582 75.2363 16.0094 75.6136 15.8408C75.9909 15.6641 76.4205 15.5758 76.9022 15.5758C77.3999 15.5758 77.8415 15.6762 78.2269 15.8769C78.6122 16.0776 78.9093 16.3706 79.118 16.756C79.3589 16.3867 79.6921 16.0977 80.1176 15.8889C80.5511 15.6802 81.0368 15.5758 81.5747 15.5758Z" fill="white"/>
<path d="M89.6992 15.5758C90.3174 15.5758 90.8714 15.7123 91.3611 15.9853C91.8508 16.2582 92.2322 16.6396 92.5051 17.1293C92.7861 17.6191 92.9266 18.1851 92.9266 18.8273C92.9266 19.4696 92.7861 20.0396 92.5051 20.5374C92.2322 21.0271 91.8508 21.4085 91.3611 21.6815C90.8714 21.9544 90.3174 22.0909 89.6992 22.0909C89.2416 22.0909 88.8201 22.0026 88.4347 21.826C88.0574 21.6493 87.7363 21.3924 87.4713 21.0552V24.3549H86.3152V15.636H87.4231V16.6476C87.6801 16.2944 88.0052 16.0294 88.3986 15.8528C88.792 15.6681 89.2255 15.5758 89.6992 15.5758ZM89.6029 21.0793C90.0123 21.0793 90.3776 20.987 90.6987 20.8023C91.0279 20.6097 91.2848 20.3447 91.4695 20.0075C91.6622 19.6623 91.7585 19.2689 91.7585 18.8273C91.7585 18.3858 91.6622 17.9964 91.4695 17.6592C91.2848 17.314 91.0279 17.049 90.6987 16.8644C90.3776 16.6797 90.0123 16.5874 89.6029 16.5874C89.2014 16.5874 88.8362 16.6837 88.507 16.8764C88.1858 17.0611 87.9289 17.322 87.7363 17.6592C87.5516 17.9964 87.4593 18.3858 87.4593 18.8273C87.4593 19.2689 87.5516 19.6623 87.7363 20.0075C87.9209 20.3447 88.1778 20.6097 88.507 20.8023C88.8362 20.987 89.2014 21.0793 89.6029 21.0793Z" fill="white"/>
<path d="M95.6319 16.7078C95.8326 16.3385 96.1297 16.0575 96.5231 15.8648C96.9165 15.6722 97.3942 15.5758 97.9562 15.5758V16.6958C97.8919 16.6878 97.8036 16.6837 97.6912 16.6837C97.065 16.6837 96.5712 16.8724 96.21 17.2497C95.8567 17.6191 95.6801 18.1489 95.6801 18.8394V22.0186H94.524V15.636H95.6319V16.7078Z" fill="white"/>
<path d="M105.091 18.8635C105.091 18.9518 105.083 19.0682 105.067 19.2127H99.8882C99.9605 19.7747 100.205 20.2283 100.623 20.5735C101.048 20.9107 101.574 21.0793 102.2 21.0793C102.963 21.0793 103.577 20.8224 104.043 20.3086L104.681 21.0552C104.392 21.3924 104.031 21.6493 103.597 21.826C103.172 22.0026 102.694 22.0909 102.164 22.0909C101.49 22.0909 100.892 21.9544 100.37 21.6815C99.8481 21.4005 99.4427 21.0111 99.1536 20.5133C98.8727 20.0155 98.7322 19.4536 98.7322 18.8273C98.7322 18.2091 98.8686 17.6512 99.1416 17.1534C99.4226 16.6556 99.804 16.2703 100.286 15.9973C100.775 15.7163 101.325 15.5758 101.936 15.5758C102.546 15.5758 103.088 15.7163 103.561 15.9973C104.043 16.2703 104.416 16.6556 104.681 17.1534C104.954 17.6512 105.091 18.2212 105.091 18.8635ZM101.936 16.5513C101.382 16.5513 100.916 16.7199 100.539 17.0571C100.169 17.3943 99.9525 17.8358 99.8882 18.3818H103.983C103.919 17.8439 103.698 17.4063 103.32 17.0691C102.951 16.7239 102.489 16.5513 101.936 16.5513ZM102.658 13.1432H104.127L102.104 14.7087H101.02L102.658 13.1432Z" fill="white"/>
<path d="M108.527 22.0909C108.005 22.0909 107.503 22.0227 107.021 21.8862C106.539 21.7417 106.162 21.561 105.889 21.3443L106.371 20.429C106.652 20.6297 106.993 20.7903 107.395 20.9107C107.796 21.0311 108.201 21.0914 108.611 21.0914C109.622 21.0914 110.128 20.8023 110.128 20.2243C110.128 20.0316 110.06 19.8791 109.923 19.7667C109.787 19.6543 109.614 19.574 109.406 19.5258C109.205 19.4696 108.916 19.4094 108.539 19.3452C108.025 19.2649 107.603 19.1726 107.274 19.0682C106.953 18.9638 106.676 18.7872 106.443 18.5383C106.21 18.2894 106.094 17.9402 106.094 17.4906C106.094 16.9126 106.335 16.4509 106.816 16.1057C107.298 15.7524 107.944 15.5758 108.755 15.5758C109.181 15.5758 109.606 15.628 110.032 15.7324C110.457 15.8367 110.807 15.9772 111.08 16.1539L110.586 17.0691C110.064 16.7319 109.45 16.5633 108.743 16.5633C108.254 16.5633 107.88 16.6436 107.623 16.8042C107.366 16.9647 107.238 17.1775 107.238 17.4424C107.238 17.6512 107.31 17.8158 107.455 17.9362C107.599 18.0566 107.776 18.1449 107.985 18.2011C108.201 18.2573 108.502 18.3215 108.888 18.3938C109.402 18.4821 109.815 18.5785 110.128 18.6828C110.449 18.7792 110.722 18.9478 110.947 19.1886C111.172 19.4295 111.284 19.7667 111.284 20.2002C111.284 20.7783 111.035 21.2399 110.538 21.5851C110.048 21.9223 109.378 22.0909 108.527 22.0909Z" fill="white"/>
<path d="M116.318 21.6453C116.149 21.7898 115.941 21.9022 115.692 21.9825C115.443 22.0548 115.186 22.0909 114.921 22.0909C114.279 22.0909 113.781 21.9183 113.428 21.5731C113.074 21.2278 112.898 20.7341 112.898 20.0918V16.5874H111.814V15.636H112.898V14.2391H114.054V15.636H115.884V16.5874H114.054V20.0436C114.054 20.3889 114.138 20.6538 114.307 20.8385C114.483 21.0231 114.732 21.1154 115.053 21.1154C115.407 21.1154 115.708 21.0151 115.957 20.8144L116.318 21.6453Z" fill="white"/>
<path d="M117.716 15.636H118.872V22.0186H117.716V15.636ZM118.294 14.4077C118.069 14.4077 117.88 14.3354 117.728 14.1909C117.583 14.0464 117.511 13.8698 117.511 13.661C117.511 13.4523 117.583 13.2757 117.728 13.1312C117.88 12.9786 118.069 12.9023 118.294 12.9023C118.518 12.9023 118.703 12.9746 118.848 13.1191C119 13.2556 119.076 13.4282 119.076 13.6369C119.076 13.8537 119 14.0384 118.848 14.1909C118.703 14.3354 118.518 14.4077 118.294 14.4077Z" fill="white"/>
<path d="M129.063 15.5758C129.866 15.5758 130.5 15.8086 130.966 16.2743C131.44 16.7399 131.677 17.4304 131.677 18.3456V22.0186H130.52V18.4781C130.52 17.8599 130.376 17.3943 130.087 17.0812C129.806 16.768 129.401 16.6115 128.871 16.6115C128.285 16.6115 127.819 16.7961 127.474 17.1654C127.128 17.5267 126.956 18.0486 126.956 18.731V22.0186H125.8V18.4781C125.8 17.8599 125.655 17.3943 125.366 17.0812C125.085 16.768 124.68 16.6115 124.15 16.6115C123.564 16.6115 123.098 16.7961 122.753 17.1654C122.408 17.5267 122.235 18.0486 122.235 18.731V22.0186H121.079V15.636H122.187V16.5874C122.42 16.2582 122.725 16.0094 123.102 15.8408C123.48 15.6641 123.909 15.5758 124.391 15.5758C124.889 15.5758 125.33 15.6762 125.715 15.8769C126.101 16.0776 126.398 16.3706 126.607 16.756C126.847 16.3867 127.181 16.0977 127.606 15.8889C128.04 15.6802 128.525 15.5758 129.063 15.5758Z" fill="white"/>
<path d="M136.573 22.0909C135.939 22.0909 135.368 21.9504 134.863 21.6694C134.357 21.3884 133.959 21.003 133.67 20.5133C133.389 20.0155 133.249 19.4536 133.249 18.8273C133.249 18.2011 133.389 17.6431 133.67 17.1534C133.959 16.6556 134.357 16.2703 134.863 15.9973C135.368 15.7163 135.939 15.5758 136.573 15.5758C137.207 15.5758 137.773 15.7163 138.271 15.9973C138.777 16.2703 139.17 16.6556 139.451 17.1534C139.74 17.6431 139.884 18.2011 139.884 18.8273C139.884 19.4536 139.74 20.0155 139.451 20.5133C139.17 21.003 138.777 21.3884 138.271 21.6694C137.773 21.9504 137.207 22.0909 136.573 22.0909ZM136.573 21.0793C136.982 21.0793 137.348 20.987 137.669 20.8023C137.998 20.6097 138.255 20.3447 138.439 20.0075C138.624 19.6623 138.716 19.2689 138.716 18.8273C138.716 18.3858 138.624 17.9964 138.439 17.6592C138.255 17.314 137.998 17.049 137.669 16.8644C137.348 16.6797 136.982 16.5874 136.573 16.5874C136.163 16.5874 135.794 16.6797 135.465 16.8644C135.144 17.049 134.887 17.314 134.694 17.6592C134.509 17.9964 134.417 18.3858 134.417 18.8273C134.417 19.2689 134.509 19.6623 134.694 20.0075C134.887 20.3447 135.144 20.6097 135.465 20.8023C135.794 20.987 136.163 21.0793 136.573 21.0793Z" fill="white"/>
<path d="M147.499 22.0909C146.849 22.0909 146.267 21.9504 145.753 21.6694C145.247 21.3884 144.85 21.003 144.561 20.5133C144.272 20.0155 144.127 19.4536 144.127 18.8273C144.127 18.2011 144.272 17.6431 144.561 17.1534C144.85 16.6556 145.247 16.2703 145.753 15.9973C146.267 15.7163 146.849 15.5758 147.499 15.5758C148.077 15.5758 148.591 15.6922 149.041 15.9251C149.498 16.1579 149.852 16.4951 150.101 16.9366L149.221 17.5026C149.021 17.1976 148.772 16.9688 148.475 16.8162C148.178 16.6637 147.849 16.5874 147.487 16.5874C147.07 16.5874 146.692 16.6797 146.355 16.8644C146.026 17.049 145.765 17.314 145.572 17.6592C145.388 17.9964 145.296 18.3858 145.296 18.8273C145.296 19.2769 145.388 19.6743 145.572 20.0196C145.765 20.3568 146.026 20.6177 146.355 20.8023C146.692 20.987 147.07 21.0793 147.487 21.0793C147.849 21.0793 148.178 21.003 148.475 20.8505C148.772 20.698 149.021 20.4692 149.221 20.1641L150.101 20.718C149.852 21.1596 149.498 21.5008 149.041 21.7417C148.591 21.9745 148.077 22.0909 147.499 22.0909Z" fill="white"/>
<path d="M154.237 22.0909C153.603 22.0909 153.033 21.9504 152.527 21.6694C152.021 21.3884 151.624 21.003 151.335 20.5133C151.054 20.0155 150.913 19.4536 150.913 18.8273C150.913 18.2011 151.054 17.6431 151.335 17.1534C151.624 16.6556 152.021 16.2703 152.527 15.9973C153.033 15.7163 153.603 15.5758 154.237 15.5758C154.871 15.5758 155.437 15.7163 155.935 15.9973C156.441 16.2703 156.834 16.6556 157.115 17.1534C157.404 17.6431 157.549 18.2011 157.549 18.8273C157.549 19.4536 157.404 20.0155 157.115 20.5133C156.834 21.003 156.441 21.3884 155.935 21.6694C155.437 21.9504 154.871 22.0909 154.237 22.0909ZM154.237 21.0793C154.646 21.0793 155.012 20.987 155.333 20.8023C155.662 20.6097 155.919 20.3447 156.104 20.0075C156.288 19.6623 156.381 19.2689 156.381 18.8273C156.381 18.3858 156.288 17.9964 156.104 17.6592C155.919 17.314 155.662 17.049 155.333 16.8644C155.012 16.6797 154.646 16.5874 154.237 16.5874C153.827 16.5874 153.458 16.6797 153.129 16.8644C152.808 17.049 152.551 17.314 152.358 17.6592C152.174 17.9964 152.081 18.3858 152.081 18.8273C152.081 19.2689 152.174 19.6623 152.358 20.0075C152.551 20.3447 152.808 20.6097 153.129 20.8023C153.458 20.987 153.827 21.0793 154.237 21.0793Z" fill="white"/>
<path d="M167.132 15.5758C167.935 15.5758 168.569 15.8086 169.035 16.2743C169.508 16.7399 169.745 17.4304 169.745 18.3456V22.0186H168.589V18.4781C168.589 17.8599 168.444 17.3943 168.155 17.0812C167.874 16.768 167.469 16.6115 166.939 16.6115C166.353 16.6115 165.887 16.7961 165.542 17.1654C165.197 17.5267 165.024 18.0486 165.024 18.731V22.0186H163.868V18.4781C163.868 17.8599 163.724 17.3943 163.435 17.0812C163.154 16.768 162.748 16.6115 162.218 16.6115C161.632 16.6115 161.167 16.7961 160.821 17.1654C160.476 17.5267 160.304 18.0486 160.304 18.731V22.0186H159.147V15.636H160.255V16.5874C160.488 16.2582 160.793 16.0094 161.171 15.8408C161.548 15.6641 161.978 15.5758 162.459 15.5758C162.957 15.5758 163.399 15.6762 163.784 15.8769C164.169 16.0776 164.466 16.3706 164.675 16.756C164.916 16.3867 165.249 16.0977 165.675 15.8889C166.108 15.6802 166.594 15.5758 167.132 15.5758Z" fill="white"/>
<path d="M71.5321 31.2433H72.6882V34.531C72.2707 34.8762 71.785 35.1411 71.231 35.3258C70.6771 35.5105 70.099 35.6028 69.4969 35.6028C68.6459 35.6028 67.8791 35.4181 67.1967 35.0488C66.5143 34.6715 65.9764 34.1577 65.583 33.5074C65.1976 32.849 65.005 32.1104 65.005 31.2915C65.005 30.4726 65.1976 29.734 65.583 29.0756C65.9764 28.4173 66.5143 27.9035 67.1967 27.5342C67.8872 27.1649 68.6619 26.9802 69.521 26.9802C70.1953 26.9802 70.8055 27.0926 71.3514 27.3174C71.9054 27.5342 72.3751 27.8553 72.7604 28.2808L72.0138 29.0275C71.3394 28.3772 70.5245 28.052 69.5691 28.052C68.9269 28.052 68.3488 28.1925 67.835 28.4735C67.3292 28.7465 66.9318 29.1318 66.6428 29.6296C66.3537 30.1193 66.2092 30.6733 66.2092 31.2915C66.2092 31.9017 66.3537 32.4556 66.6428 32.9534C66.9318 33.4431 67.3292 33.8285 67.835 34.1095C68.3488 34.3905 68.9228 34.531 69.5571 34.531C70.3118 34.531 70.9701 34.3503 71.5321 33.9891V31.2433Z" fill="white"/>
<path d="M76.6678 29.0636C77.5509 29.0636 78.2253 29.2804 78.691 29.7139C79.1647 30.1474 79.4015 30.7937 79.4015 31.6528V35.5064H78.3056V34.6635C78.1129 34.9605 77.836 35.1893 77.4747 35.3499C77.1214 35.5024 76.6999 35.5787 76.2102 35.5787C75.4957 35.5787 74.9216 35.4061 74.4881 35.0609C74.0626 34.7156 73.8498 34.262 73.8498 33.7C73.8498 33.138 74.0546 32.6885 74.464 32.3513C74.8735 32.006 75.5238 31.8334 76.4149 31.8334H78.2454V31.6046C78.2454 31.1068 78.1009 30.7255 77.8119 30.4606C77.5228 30.1956 77.0973 30.0632 76.5353 30.0632C76.158 30.0632 75.7887 30.1274 75.4274 30.2558C75.0661 30.3763 74.7611 30.5408 74.5122 30.7496L74.0305 29.8825C74.3596 29.6176 74.753 29.4169 75.2107 29.2804C75.6683 29.1359 76.154 29.0636 76.6678 29.0636ZM76.4029 34.6875C76.8444 34.6875 77.2258 34.5912 77.5469 34.3985C77.8681 34.1978 78.1009 33.9168 78.2454 33.5555V32.6644H76.4631C75.4836 32.6644 74.9939 32.9935 74.9939 33.6519C74.9939 33.973 75.1183 34.2259 75.3672 34.4106C75.6161 34.5952 75.9613 34.6875 76.4029 34.6875Z" fill="white"/>
<path d="M82.1672 30.1956C82.3679 29.8263 82.6649 29.5453 83.0583 29.3526C83.4517 29.1599 83.9294 29.0636 84.4914 29.0636V30.1836C84.4272 30.1755 84.3389 30.1715 84.2265 30.1715C83.6003 30.1715 83.1065 30.3602 82.7452 30.7375C82.392 31.1068 82.2153 31.6367 82.2153 32.3272V35.5064H81.0593V29.1238H82.1672V30.1956Z" fill="white"/>
<path d="M87.7471 29.0636C88.6302 29.0636 89.3046 29.2804 89.7702 29.7139C90.2439 30.1474 90.4808 30.7937 90.4808 31.6528V35.5064H89.3849V34.6635C89.1922 34.9605 88.9152 35.1893 88.5539 35.3499C88.2007 35.5024 87.7792 35.5787 87.2895 35.5787C86.5749 35.5787 86.0009 35.4061 85.5673 35.0609C85.1418 34.7156 84.9291 34.262 84.9291 33.7C84.9291 33.138 85.1338 32.6885 85.5433 32.3513C85.9527 32.006 86.603 31.8334 87.4942 31.8334H89.3247V31.6046C89.3247 31.1068 89.1801 30.7255 88.8911 30.4606C88.6021 30.1956 88.1766 30.0632 87.6146 30.0632C87.2373 30.0632 86.868 30.1274 86.5067 30.2558C86.1454 30.3763 85.8403 30.5408 85.5914 30.7496L85.1097 29.8825C85.4389 29.6176 85.8323 29.4169 86.2899 29.2804C86.7475 29.1359 87.2333 29.0636 87.7471 29.0636ZM87.4821 34.6875C87.9237 34.6875 88.305 34.5912 88.6262 34.3985C88.9473 34.1978 89.1801 33.9168 89.3247 33.5555V32.6644H87.5423C86.5629 32.6644 86.0731 32.9935 86.0731 33.6519C86.0731 33.973 86.1976 34.2259 86.4465 34.4106C86.6953 34.5952 87.0406 34.6875 87.4821 34.6875Z" fill="white"/>
<path d="M95.5466 29.0636C96.3575 29.0636 96.9997 29.3004 97.4734 29.7741C97.9551 30.2398 98.196 30.9262 98.196 31.8334V35.5064H97.0399V31.9659C97.0399 31.3477 96.8913 30.8821 96.5943 30.5689C96.2972 30.2558 95.8717 30.0993 95.3178 30.0993C94.6916 30.0993 94.1978 30.2839 93.8365 30.6532C93.4752 31.0145 93.2946 31.5364 93.2946 32.2188V35.5064H92.1385V29.1238H93.2464V30.0872C93.4793 29.7581 93.7924 29.5052 94.1858 29.3285C94.5872 29.1519 95.0408 29.0636 95.5466 29.0636Z" fill="white"/>
<path d="M103.443 35.1331C103.274 35.2776 103.065 35.39 102.816 35.4703C102.567 35.5426 102.311 35.5787 102.046 35.5787C101.403 35.5787 100.906 35.4061 100.552 35.0609C100.199 34.7156 100.022 34.2219 100.022 33.5796V30.0752H98.9386V29.1238H100.022V27.7269H101.179V29.1238H103.009V30.0752H101.179V33.5314C101.179 33.8767 101.263 34.1416 101.431 34.3263C101.608 34.5109 101.857 34.6032 102.178 34.6032C102.531 34.6032 102.832 34.5029 103.081 34.3022L103.443 35.1331Z" fill="white"/>
<path d="M104.359 29.1238H105.515V35.5064H104.359V29.1238ZM104.937 27.8955C104.712 27.8955 104.523 27.8232 104.371 27.6787C104.226 27.5342 104.154 27.3576 104.154 27.1488C104.154 26.9401 104.226 26.7635 104.371 26.6189C104.523 26.4664 104.712 26.3901 104.937 26.3901C105.161 26.3901 105.346 26.4624 105.491 26.6069C105.643 26.7434 105.719 26.916 105.719 27.1247C105.719 27.3415 105.643 27.5262 105.491 27.6787C105.346 27.8232 105.161 27.8955 104.937 27.8955Z" fill="white"/>
<path d="M109.565 29.0636C110.448 29.0636 111.122 29.2804 111.588 29.7139C112.061 30.1474 112.298 30.7937 112.298 31.6528V35.5064H111.202V34.6635C111.01 34.9605 110.733 35.1893 110.371 35.3499C110.018 35.5024 109.597 35.5787 109.107 35.5787C108.392 35.5787 107.818 35.4061 107.385 35.0609C106.959 34.7156 106.747 34.262 106.747 33.7C106.747 33.138 106.951 32.6885 107.361 32.3513C107.77 32.006 108.42 31.8334 109.312 31.8334H111.142V31.6046C111.142 31.1068 110.998 30.7255 110.709 30.4606C110.42 30.1956 109.994 30.0632 109.432 30.0632C109.055 30.0632 108.685 30.1274 108.324 30.2558C107.963 30.3763 107.658 30.5408 107.409 30.7496L106.927 29.8825C107.256 29.6176 107.65 29.4169 108.107 29.2804C108.565 29.1359 109.051 29.0636 109.565 29.0636ZM109.3 34.6875C109.741 34.6875 110.123 34.5912 110.444 34.3985C110.765 34.1978 110.998 33.9168 111.142 33.5555V32.6644H109.36C108.38 32.6644 107.891 32.9935 107.891 33.6519C107.891 33.973 108.015 34.2259 108.264 34.4106C108.513 34.5952 108.858 34.6875 109.3 34.6875Z" fill="white"/>
<path d="M122.73 26.5708V35.5064H121.622V34.4949C121.365 34.8481 121.04 35.1171 120.646 35.3017C120.253 35.4864 119.819 35.5787 119.346 35.5787C118.728 35.5787 118.174 35.4422 117.684 35.1692C117.194 34.8963 116.809 34.5149 116.528 34.0252C116.255 33.5274 116.118 32.9574 116.118 32.3151C116.118 31.6729 116.255 31.1068 116.528 30.6171C116.809 30.1274 117.194 29.746 117.684 29.4731C118.174 29.2001 118.728 29.0636 119.346 29.0636C119.803 29.0636 120.225 29.1519 120.61 29.3285C120.996 29.4971 121.317 29.75 121.574 30.0872V26.5708H122.73ZM119.442 34.5671C119.843 34.5671 120.209 34.4748 120.538 34.2901C120.867 34.0974 121.124 33.8325 121.309 33.4953C121.493 33.1501 121.586 32.7567 121.586 32.3151C121.586 31.8736 121.493 31.4842 121.309 31.147C121.124 30.8018 120.867 30.5368 120.538 30.3522C120.209 30.1675 119.843 30.0752 119.442 30.0752C119.033 30.0752 118.663 30.1675 118.334 30.3522C118.013 30.5368 117.756 30.8018 117.563 31.147C117.379 31.4842 117.286 31.8736 117.286 32.3151C117.286 32.7567 117.379 33.1501 117.563 33.4953C117.756 33.8325 118.013 34.0974 118.334 34.2901C118.663 34.4748 119.033 34.5671 119.442 34.5671Z" fill="white"/>
<path d="M127.169 35.5787C126.535 35.5787 125.965 35.4382 125.459 35.1572C124.953 34.8762 124.556 34.4908 124.267 34.0011C123.986 33.5033 123.845 32.9413 123.845 32.3151C123.845 31.6889 123.986 31.1309 124.267 30.6412C124.556 30.1434 124.953 29.7581 125.459 29.4851C125.965 29.2041 126.535 29.0636 127.169 29.0636C127.803 29.0636 128.369 29.2041 128.867 29.4851C129.373 29.7581 129.766 30.1434 130.047 30.6412C130.336 31.1309 130.481 31.6889 130.481 32.3151C130.481 32.9413 130.336 33.5033 130.047 34.0011C129.766 34.4908 129.373 34.8762 128.867 35.1572C128.369 35.4382 127.803 35.5787 127.169 35.5787ZM127.169 34.5671C127.579 34.5671 127.944 34.4748 128.265 34.2901C128.594 34.0974 128.851 33.8325 129.036 33.4953C129.22 33.1501 129.313 32.7567 129.313 32.3151C129.313 31.8736 129.22 31.4842 129.036 31.147C128.851 30.8018 128.594 30.5368 128.265 30.3522C127.944 30.1675 127.579 30.0752 127.169 30.0752C126.76 30.0752 126.39 30.1675 126.061 30.3522C125.74 30.5368 125.483 30.8018 125.29 31.147C125.106 31.4842 125.013 31.8736 125.013 32.3151C125.013 32.7567 125.106 33.1501 125.29 33.4953C125.483 33.8325 125.74 34.0974 126.061 34.2901C126.39 34.4748 126.76 34.5671 127.169 34.5671Z" fill="white"/>
<path d="M136.976 35.6028C136.341 35.6028 135.727 35.5064 135.133 35.3138C134.547 35.113 134.085 34.8561 133.748 34.543L134.194 33.6037C134.515 33.8927 134.924 34.1296 135.422 34.3142C135.928 34.4908 136.446 34.5792 136.976 34.5792C137.674 34.5792 138.196 34.4627 138.541 34.2299C138.886 33.9891 139.059 33.6719 139.059 33.2785C139.059 32.9895 138.963 32.7567 138.77 32.5801C138.585 32.3954 138.353 32.2549 138.072 32.1586C137.799 32.0622 137.409 31.9538 136.903 31.8334C136.269 31.6809 135.755 31.5283 135.362 31.3758C134.977 31.2233 134.643 30.9904 134.362 30.6773C134.089 30.3562 133.953 29.9267 133.953 29.3888C133.953 28.9392 134.069 28.5337 134.302 28.1725C134.543 27.8112 134.904 27.5221 135.386 27.3054C135.868 27.0886 136.466 26.9802 137.18 26.9802C137.678 26.9802 138.168 27.0445 138.65 27.1729C139.131 27.3014 139.545 27.486 139.89 27.7269L139.493 28.6903C139.139 28.4655 138.762 28.2969 138.361 28.1845C137.959 28.0641 137.566 28.0039 137.18 28.0039C136.498 28.0039 135.984 28.1283 135.639 28.3772C135.302 28.6261 135.133 28.9472 135.133 29.3406C135.133 29.6296 135.23 29.8665 135.422 30.0511C135.615 30.2277 135.852 30.3682 136.133 30.4726C136.422 30.5689 136.811 30.6733 137.301 30.7857C137.935 30.9383 138.445 31.0908 138.83 31.2433C139.216 31.3959 139.545 31.6287 139.818 31.9418C140.099 32.2549 140.239 32.6764 140.239 33.2063C140.239 33.6479 140.119 34.0533 139.878 34.4226C139.637 34.7839 139.272 35.0729 138.782 35.2897C138.292 35.4984 137.69 35.6028 136.976 35.6028Z" fill="white"/>
<path d="M143.673 29.0636C144.556 29.0636 145.23 29.2804 145.696 29.7139C146.169 30.1474 146.406 30.7937 146.406 31.6528V35.5064H145.31V34.6635C145.118 34.9605 144.841 35.1893 144.479 35.3499C144.126 35.5024 143.705 35.5787 143.215 35.5787C142.5 35.5787 141.926 35.4061 141.493 35.0609C141.067 34.7156 140.855 34.262 140.855 33.7C140.855 33.138 141.059 32.6885 141.469 32.3513C141.878 32.006 142.529 31.8334 143.42 31.8334H145.25V31.6046C145.25 31.1068 145.106 30.7255 144.817 30.4606C144.528 30.1956 144.102 30.0632 143.54 30.0632C143.163 30.0632 142.793 30.1274 142.432 30.2558C142.071 30.3763 141.766 30.5408 141.517 30.7496L141.035 29.8825C141.364 29.6176 141.758 29.4169 142.215 29.2804C142.673 29.1359 143.159 29.0636 143.673 29.0636ZM143.408 34.6875C143.849 34.6875 144.231 34.5912 144.552 34.3985C144.873 34.1978 145.106 33.9168 145.25 33.5555V32.6644H143.468C142.488 32.6644 141.999 32.9935 141.999 33.6519C141.999 33.973 142.123 34.2259 142.372 34.4106C142.621 34.5952 142.966 34.6875 143.408 34.6875Z" fill="white"/>
<path d="M154.121 29.1238V37.8427H152.965V34.543C152.7 34.8802 152.374 35.1371 151.989 35.3138C151.612 35.4904 151.194 35.5787 150.737 35.5787C150.118 35.5787 149.564 35.4422 149.075 35.1692C148.585 34.8963 148.2 34.5149 147.919 34.0252C147.646 33.5274 147.509 32.9574 147.509 32.3151C147.509 31.6729 147.646 31.1068 147.919 30.6171C148.2 30.1274 148.585 29.746 149.075 29.4731C149.564 29.2001 150.118 29.0636 150.737 29.0636C151.21 29.0636 151.644 29.1559 152.037 29.3406C152.431 29.5172 152.756 29.7822 153.013 30.1354V29.1238H154.121ZM150.833 34.5671C151.234 34.5671 151.6 34.4748 151.929 34.2901C152.258 34.0974 152.515 33.8325 152.7 33.4953C152.884 33.1501 152.977 32.7567 152.977 32.3151C152.977 31.8736 152.88 31.4842 152.688 31.147C152.503 30.8098 152.246 30.5489 151.917 30.3642C151.596 30.1715 151.234 30.0752 150.833 30.0752C150.424 30.0752 150.054 30.1675 149.725 30.3522C149.404 30.5368 149.147 30.8018 148.954 31.147C148.77 31.4842 148.677 31.8736 148.677 32.3151C148.677 32.7567 148.77 33.1501 148.954 33.4953C149.147 33.8325 149.404 34.0974 149.725 34.2901C150.054 34.4748 150.424 34.5671 150.833 34.5671Z" fill="white"/>
<path d="M161.775 29.1238V35.5064H160.68V34.543C160.447 34.8722 160.138 35.1291 159.752 35.3138C159.375 35.4904 158.961 35.5787 158.512 35.5787C157.661 35.5787 156.99 35.3459 156.501 34.8802C156.011 34.4065 155.766 33.7121 155.766 32.7968V29.1238H156.922V32.6644C156.922 33.2826 157.071 33.7522 157.368 34.0734C157.665 34.3865 158.09 34.543 158.644 34.543C159.255 34.543 159.736 34.3584 160.089 33.9891C160.443 33.6198 160.619 33.0979 160.619 32.4235V29.1238H161.775Z" fill="white"/>
<path d="M169.263 32.3513C169.263 32.4396 169.255 32.556 169.239 32.7005H164.061C164.133 33.2625 164.378 33.7161 164.795 34.0613C165.221 34.3985 165.747 34.5671 166.373 34.5671C167.136 34.5671 167.75 34.3102 168.215 33.7964L168.854 34.543C168.565 34.8802 168.203 35.1371 167.77 35.3138C167.344 35.4904 166.867 35.5787 166.337 35.5787C165.662 35.5787 165.064 35.4422 164.542 35.1692C164.02 34.8882 163.615 34.4989 163.326 34.0011C163.045 33.5033 162.905 32.9413 162.905 32.3151C162.905 31.6969 163.041 31.139 163.314 30.6412C163.595 30.1434 163.976 29.7581 164.458 29.4851C164.948 29.2041 165.498 29.0636 166.108 29.0636C166.718 29.0636 167.26 29.2041 167.734 29.4851C168.215 29.7581 168.589 30.1434 168.854 30.6412C169.127 31.139 169.263 31.709 169.263 32.3513ZM166.108 30.0391C165.554 30.0391 165.088 30.2077 164.711 30.5449C164.342 30.8821 164.125 31.3236 164.061 31.8696H168.155C168.091 31.3316 167.87 30.8941 167.493 30.5569C167.123 30.2117 166.662 30.0391 166.108 30.0391Z" fill="white"/>
<path d="M71.0624 46.8868H66.5825L65.6553 48.9942H64.4149L68.2324 40.5644H69.4246L73.2542 48.9942H71.9897L71.0624 46.8868ZM70.6409 45.9234L68.8225 41.7927L67.004 45.9234H70.6409Z" fill="white"/>
<path d="M77.7512 42.5514C78.5621 42.5514 79.2043 42.7882 79.678 43.2619C80.1597 43.7276 80.4006 44.414 80.4006 45.3212V48.9942H79.2445V45.4537C79.2445 44.8355 79.096 44.3698 78.7989 44.0567C78.5018 43.7436 78.0763 43.5871 77.5224 43.5871C76.8962 43.5871 76.4024 43.7717 76.0411 44.141C75.6798 44.5023 75.4992 45.0242 75.4992 45.7066V48.9942H74.3431V42.6116H75.451V43.575C75.6839 43.2459 75.997 42.993 76.3904 42.8163C76.7918 42.6397 77.2454 42.5514 77.7512 42.5514Z" fill="white"/>
<path d="M82.5401 42.6116H83.6962V48.9942H82.5401V42.6116ZM83.1182 41.3833C82.8934 41.3833 82.7047 41.311 82.5522 41.1665C82.4077 41.022 82.3354 40.8454 82.3354 40.6366C82.3354 40.4279 82.4077 40.2512 82.5522 40.1067C82.7047 39.9542 82.8934 39.8779 83.1182 39.8779C83.343 39.8779 83.5276 39.9502 83.6721 40.0947C83.8247 40.2312 83.9009 40.4038 83.9009 40.6125C83.9009 40.8293 83.8247 41.014 83.6721 41.1665C83.5276 41.311 83.343 41.3833 83.1182 41.3833Z" fill="white"/>
<path d="M91.5516 42.6116L88.7577 48.9942H87.5775L84.7836 42.6116H85.9879L88.1797 47.7298L90.4196 42.6116H91.5516Z" fill="white"/>
<path d="M98.2226 45.8391C98.2226 45.9274 98.2146 46.0438 98.1985 46.1883H93.0202C93.0924 46.7503 93.3373 47.2039 93.7548 47.5491C94.1803 47.8863 94.7061 48.0549 95.3324 48.0549C96.0951 48.0549 96.7092 47.798 97.1749 47.2842L97.8131 48.0308C97.5241 48.368 97.1628 48.6249 96.7293 48.8015C96.3038 48.9782 95.8261 49.0665 95.2962 49.0665C94.6218 49.0665 94.0237 48.93 93.5019 48.657C92.98 48.376 92.5746 47.9867 92.2856 47.4889C92.0046 46.9911 91.8641 46.4291 91.8641 45.8029C91.8641 45.1847 92.0006 44.6268 92.2735 44.129C92.5545 43.6312 92.9359 43.2459 93.4176 42.9729C93.9073 42.6919 94.4573 42.5514 95.0674 42.5514C95.6776 42.5514 96.2195 42.6919 96.6932 42.9729C97.1749 43.2459 97.5482 43.6312 97.8131 44.129C98.0861 44.6268 98.2226 45.1968 98.2226 45.8391ZM95.0674 43.5269C94.5135 43.5269 94.0478 43.6955 93.6705 44.0326C93.3012 44.3698 93.0844 44.8114 93.0202 45.3573H97.1147C97.0504 44.8194 96.8297 44.3819 96.4523 44.0447C96.083 43.6995 95.6214 43.5269 95.0674 43.5269Z" fill="white"/>
<path d="M100.936 43.6834C101.137 43.3141 101.434 43.0331 101.827 42.8404C102.22 42.6477 102.698 42.5514 103.26 42.5514V43.6714C103.196 43.6633 103.108 43.6593 102.995 43.6593C102.369 43.6593 101.875 43.848 101.514 44.2253C101.161 44.5946 100.984 45.1245 100.984 45.815V48.9942H99.8279V42.6116H100.936V43.6834Z" fill="white"/>
<path d="M106.563 49.0665C106.041 49.0665 105.539 48.9982 105.057 48.8618C104.575 48.7173 104.198 48.5366 103.925 48.3198L104.407 47.4046C104.688 47.6053 105.029 47.7659 105.431 47.8863C105.832 48.0067 106.237 48.0669 106.647 48.0669C107.658 48.0669 108.164 47.7779 108.164 47.1999C108.164 47.0072 108.096 46.8546 107.959 46.7423C107.823 46.6299 107.65 46.5496 107.442 46.5014C107.241 46.4452 106.952 46.385 106.575 46.3208C106.061 46.2405 105.639 46.1481 105.31 46.0438C104.989 45.9394 104.712 45.7628 104.479 45.5139C104.246 45.265 104.13 44.9158 104.13 44.4662C104.13 43.8881 104.371 43.4265 104.852 43.0813C105.334 42.728 105.98 42.5514 106.791 42.5514C107.217 42.5514 107.642 42.6036 108.068 42.708C108.493 42.8123 108.843 42.9528 109.116 43.1294L108.622 44.0447C108.1 43.7075 107.486 43.5389 106.779 43.5389C106.29 43.5389 105.916 43.6192 105.659 43.7798C105.402 43.9403 105.274 44.1531 105.274 44.418C105.274 44.6268 105.346 44.7913 105.491 44.9118C105.635 45.0322 105.812 45.1205 106.021 45.1767C106.237 45.2329 106.538 45.2971 106.924 45.3694C107.438 45.4577 107.851 45.554 108.164 45.6584C108.485 45.7548 108.758 45.9234 108.983 46.1642C109.208 46.4051 109.32 46.7423 109.32 47.1758C109.32 47.7538 109.071 48.2155 108.574 48.5607C108.084 48.8979 107.414 49.0665 106.563 49.0665Z" fill="white"/>
<path d="M113.089 42.5514C113.972 42.5514 114.647 42.7682 115.113 43.2017C115.586 43.6352 115.823 44.2815 115.823 45.1406V48.9942H114.727V48.1512C114.534 48.4483 114.258 48.6771 113.896 48.8377C113.543 48.9902 113.121 49.0665 112.632 49.0665C111.917 49.0665 111.343 48.8939 110.91 48.5487C110.484 48.2034 110.271 47.7498 110.271 47.1878C110.271 46.6258 110.476 46.1762 110.886 45.8391C111.295 45.4938 111.945 45.3212 112.836 45.3212H114.667V45.0924C114.667 44.5946 114.522 44.2133 114.233 43.9484C113.944 43.6834 113.519 43.5509 112.957 43.5509C112.58 43.5509 112.21 43.6152 111.849 43.7436C111.488 43.8641 111.183 44.0286 110.934 44.2374L110.452 43.3703C110.781 43.1054 111.175 42.9047 111.632 42.7682C112.09 42.6237 112.576 42.5514 113.089 42.5514ZM112.824 48.1753C113.266 48.1753 113.647 48.079 113.968 47.8863C114.29 47.6856 114.522 47.4046 114.667 47.0433V46.1522H112.885C111.905 46.1522 111.415 46.4813 111.415 47.1397C111.415 47.4608 111.54 47.7137 111.789 47.8983C112.038 48.083 112.383 48.1753 112.824 48.1753ZM113.908 40.1188H115.377L113.354 41.6843H112.27L113.908 40.1188Z" fill="white"/>
<path d="M119.07 43.6834C119.271 43.3141 119.568 43.0331 119.962 42.8404C120.355 42.6477 120.833 42.5514 121.395 42.5514V43.6714C121.33 43.6633 121.242 43.6593 121.13 43.6593C120.504 43.6593 120.01 43.848 119.648 44.2253C119.295 44.5946 119.119 45.1245 119.119 45.815V48.9942H117.963V42.6116H119.07V43.6834Z" fill="white"/>
<path d="M122.82 42.6116H123.976V48.9942H122.82V42.6116ZM123.398 41.3833C123.173 41.3833 122.984 41.311 122.832 41.1665C122.687 41.022 122.615 40.8454 122.615 40.6366C122.615 40.4279 122.687 40.2512 122.832 40.1067C122.984 39.9542 123.173 39.8779 123.398 39.8779C123.622 39.8779 123.807 39.9502 123.952 40.0947C124.104 40.2312 124.18 40.4038 124.18 40.6125C124.18 40.8293 124.104 41.014 123.952 41.1665C123.807 41.311 123.622 41.3833 123.398 41.3833Z" fill="white"/>
<path d="M128.917 49.0665C128.282 49.0665 127.712 48.926 127.207 48.645C126.701 48.364 126.303 47.9786 126.014 47.4889C125.733 46.9911 125.593 46.4291 125.593 45.8029C125.593 45.1767 125.733 44.6187 126.014 44.129C126.303 43.6312 126.701 43.2459 127.207 42.9729C127.712 42.6919 128.282 42.5514 128.917 42.5514C129.551 42.5514 130.117 42.6919 130.615 42.9729C131.121 43.2459 131.514 43.6312 131.795 44.129C132.084 44.6187 132.228 45.1767 132.228 45.8029C132.228 46.4291 132.084 46.9911 131.795 47.4889C131.514 47.9786 131.121 48.364 130.615 48.645C130.117 48.926 129.551 49.0665 128.917 49.0665ZM128.917 48.0549C129.326 48.0549 129.691 47.9626 130.013 47.7779C130.342 47.5852 130.599 47.3203 130.783 46.9831C130.968 46.6379 131.06 46.2445 131.06 45.8029C131.06 45.3614 130.968 44.972 130.783 44.6348C130.599 44.2896 130.342 44.0246 130.013 43.84C129.691 43.6553 129.326 43.563 128.917 43.563C128.507 43.563 128.138 43.6553 127.809 43.84C127.488 44.0246 127.231 44.2896 127.038 44.6348C126.853 44.972 126.761 45.3614 126.761 45.8029C126.761 46.2445 126.853 46.6379 127.038 46.9831C127.231 47.3203 127.488 47.5852 127.809 47.7779C128.138 47.9626 128.507 48.0549 128.917 48.0549Z" fill="white"/>
<path d="M138.434 41.6121V44.5505H142.661V45.5862H138.434V48.9942H137.23V40.5644H143.179V41.6121H138.434Z" fill="white"/>
<path d="M150.621 44.7311H151.777V48.0188C151.36 48.364 150.874 48.6289 150.32 48.8136C149.766 48.9982 149.188 49.0906 148.586 49.0906C147.735 49.0906 146.968 48.9059 146.286 48.5366C145.603 48.1593 145.065 47.6455 144.672 46.9951C144.286 46.3368 144.094 45.5982 144.094 44.7793C144.094 43.9604 144.286 43.2218 144.672 42.5634C145.065 41.9051 145.603 41.3913 146.286 41.022C146.976 40.6527 147.751 40.468 148.61 40.468C149.284 40.468 149.894 40.5804 150.44 40.8052C150.994 41.022 151.464 41.3431 151.849 41.7686L151.103 42.5153C150.428 41.865 149.613 41.5398 148.658 41.5398C148.016 41.5398 147.438 41.6803 146.924 41.9613C146.418 42.2343 146.021 42.6196 145.732 43.1174C145.443 43.6071 145.298 44.1611 145.298 44.7793C145.298 45.3895 145.443 45.9434 145.732 46.4412C146.021 46.9309 146.418 47.3163 146.924 47.5973C147.438 47.8783 148.012 48.0188 148.646 48.0188C149.401 48.0188 150.059 47.8381 150.621 47.4769V44.7311Z" fill="white"/>
<path d="M155.757 41.6121H152.866V40.5644H159.839V41.6121H156.949V48.9942H155.757V41.6121Z" fill="white"/>
<path d="M163.502 49.0906C162.867 49.0906 162.253 48.9942 161.659 48.8015C161.073 48.6008 160.611 48.3439 160.274 48.0308L160.72 47.0915C161.041 47.3805 161.45 47.6174 161.948 47.802C162.454 47.9786 162.972 48.0669 163.502 48.0669C164.2 48.0669 164.722 47.9505 165.067 47.7177C165.412 47.4769 165.585 47.1597 165.585 46.7663C165.585 46.4773 165.489 46.2445 165.296 46.0679C165.111 45.8832 164.878 45.7427 164.597 45.6464C164.324 45.55 163.935 45.4416 163.429 45.3212C162.795 45.1687 162.281 45.0161 161.888 44.8636C161.502 44.7111 161.169 44.4782 160.888 44.1651C160.615 43.844 160.479 43.4145 160.479 42.8766C160.479 42.427 160.595 42.0215 160.828 41.6602C161.069 41.299 161.43 41.0099 161.912 40.7932C162.394 40.5764 162.992 40.468 163.706 40.468C164.204 40.468 164.694 40.5322 165.176 40.6607C165.657 40.7892 166.071 40.9738 166.416 41.2147L166.018 42.1781C165.665 41.9533 165.288 41.7847 164.886 41.6723C164.485 41.5519 164.092 41.4916 163.706 41.4916C163.024 41.4916 162.51 41.6161 162.165 41.865C161.828 42.1138 161.659 42.435 161.659 42.8284C161.659 43.1174 161.755 43.3542 161.948 43.5389C162.141 43.7155 162.378 43.856 162.659 43.9604C162.948 44.0567 163.337 44.1611 163.827 44.2735C164.461 44.426 164.971 44.5786 165.356 44.7311C165.742 44.8837 166.071 45.1165 166.344 45.4296C166.625 45.7427 166.765 46.1642 166.765 46.6941C166.765 47.1356 166.645 47.5411 166.404 47.9104C166.163 48.2717 165.798 48.5607 165.308 48.7775C164.818 48.9862 164.216 49.0906 163.502 49.0906Z" fill="white"/>
</svg>
