<svg width="45" height="45" viewBox="0 0 45 45" fill="none" xmlns="http://www.w3.org/2000/svg">
<path fill-rule="evenodd" clip-rule="evenodd" d="M29.4412 13.7467C26.7534 11.6107 23.2611 10.8421 19.8494 11.6353C15.8522 12.5648 12.6415 15.7419 11.6651 19.7257C10.8652 22.9989 11.4819 26.2767 13.4056 28.9534C14.9697 31.1296 15.7963 33.632 15.7963 36.1903V38.1408C15.7963 41.8363 18.8037 44.8437 22.4992 44.8437C26.1948 44.8437 29.2022 41.8363 29.2022 38.1408V36.1992C29.2022 33.7437 30.0691 31.2167 31.7783 28.6875C33.0161 26.8531 33.6708 24.7149 33.6708 22.5007C33.6708 19.071 32.1291 15.8827 29.4412 13.7467ZM42.6077 20.2649H40.3734C39.1378 20.2649 38.1391 21.2637 38.1391 22.4992C38.1391 23.7348 39.1378 24.7335 40.3734 24.7335H42.6077C43.8432 24.7335 44.842 23.7348 44.842 22.4992C44.842 21.2637 43.8432 20.2649 42.6077 20.2649ZM4.62485 20.2649H2.39055C1.15498 20.2649 0.15625 21.2637 0.15625 22.4992C0.15625 23.7348 1.15498 24.7335 2.39055 24.7335H4.62485C5.86042 24.7335 6.85915 23.7348 6.85915 22.4992C6.85915 21.2637 5.86042 20.2649 4.62485 20.2649ZM22.4994 6.85915C23.735 6.85915 24.7337 5.86042 24.7337 4.62485V2.39055C24.7337 1.15498 23.735 0.15625 22.4994 0.15625C21.2639 0.15625 20.2651 1.15498 20.2651 2.39055V4.62485C20.2651 5.86042 21.2639 6.85915 22.4994 6.85915ZM39.7188 5.28014C38.8452 4.40653 37.4331 4.40653 36.5595 5.28014L34.3252 7.51444C33.4516 8.38805 33.4516 9.80013 34.3252 10.6737C34.7609 11.1094 35.3329 11.3284 35.9049 11.3284C36.4768 11.3284 37.0488 11.1094 37.4845 10.6737L39.7188 8.43944C40.5924 7.56583 40.5924 6.15375 39.7188 5.28014ZM8.43866 5.28014C7.56505 4.40653 6.15297 4.40653 5.27936 5.28014C4.40575 6.15375 4.40575 7.56583 5.27936 8.43944L7.51366 10.6737C7.94935 11.1094 8.52133 11.3284 9.09331 11.3284C9.6653 11.3284 10.2373 11.1094 10.673 10.6737C11.5466 9.80013 11.5466 8.38805 10.673 7.51444L8.43866 5.28014ZM28.0764 26.1848C26.9079 27.9141 26.0611 29.6703 25.5047 31.4376H19.5347C18.994 29.6457 18.1695 27.9253 17.0367 26.3456C15.8861 24.7459 15.5219 22.773 16.009 20.7867C16.5787 18.4608 18.5292 16.5304 20.8619 15.9874C21.4204 15.8578 21.9723 15.7953 22.5152 15.7953C24.0256 15.7953 25.4578 16.2891 26.6621 17.2453C28.2775 18.5278 29.2025 20.4426 29.2025 22.5004C29.2025 23.8186 28.8115 25.0944 28.0764 26.1848ZM24.7342 38.1404C24.7342 39.3715 23.7333 40.3747 22.4999 40.3747C21.2666 40.3747 20.2656 39.3715 20.2656 38.1404V36.1898C20.2656 36.0938 20.2433 36.0022 20.2433 35.9061H24.7588C24.7566 36.0044 24.7342 36.1005 24.7342 36.1988V38.1404Z" fill="white"/>
</svg>
