<svg width="73" height="352" viewBox="0 0 73 352" fill="none" xmlns="http://www.w3.org/2000/svg">
<mask id="path-1-inside-1_116_4207" fill="white">
<path fill-rule="evenodd" clip-rule="evenodd" d="M87.8364 5.586e-05L87.8364 87.7505L0.0864868 87.7505C0.0864868 87.7504 0.0864868 87.7502 0.0864868 87.7501C0.0864852 39.2871 39.3735 9.68651e-05 87.8364 5.586e-05Z"/>
</mask>
<path d="M87.8364 5.586e-05L88.8364 5.5801e-05L88.8364 -0.999944L87.8364 -0.999944L87.8364 5.586e-05ZM87.8364 87.7505L87.8364 88.7505L88.8364 88.7505L88.8364 87.7505L87.8364 87.7505ZM0.0864868 87.7505L-0.913513 87.7505L-0.913513 88.7505L0.0864869 88.7505L0.0864868 87.7505ZM86.8364 5.5919e-05L86.8364 87.7505L88.8364 87.7505L88.8364 5.5801e-05L86.8364 5.5919e-05ZM87.8364 86.7505L0.0864868 86.7505L0.0864869 88.7505L87.8364 88.7505L87.8364 86.7505ZM1.08649 87.7505C1.08649 87.7504 1.08649 87.7504 1.08649 87.7503C1.08649 87.7502 1.08649 87.7502 1.08649 87.7501L-0.913513 87.7501C-0.913513 87.7502 -0.913513 87.7502 -0.913513 87.7503C-0.913513 87.7504 -0.913513 87.7504 -0.913513 87.7505L1.08649 87.7505ZM1.08649 87.7501C1.08649 39.8394 39.9258 1.0001 87.8364 1.00006L87.8364 -0.999944C38.8212 -0.999903 -0.913515 38.7348 -0.913513 87.7501L1.08649 87.7501Z" fill="#0EA0C0" mask="url(#path-1-inside-1_116_4207)"/>
<mask id="path-3-inside-2_116_4207" fill="white">
<path fill-rule="evenodd" clip-rule="evenodd" d="M87.75 351.555L87.7499 263.805L0 263.805C0 263.805 0 263.805 0 263.805C9.01374e-06 312.268 39.287 351.555 87.75 351.555Z"/>
</mask>
<path d="M87.75 351.555L88.75 351.555L88.75 352.555L87.75 352.555L87.75 351.555ZM87.7499 263.805L87.7499 262.805L88.7499 262.805L88.7499 263.805L87.7499 263.805ZM0 263.805L-1 263.805L-1 262.805L-1.85976e-07 262.805L0 263.805ZM86.75 351.555L86.7499 263.805L88.7499 263.805L88.75 351.555L86.75 351.555ZM87.7499 264.805L1.86008e-07 264.805L-1.85976e-07 262.805L87.7499 262.805L87.7499 264.805ZM1 263.805C1 263.805 1 263.805 1 263.805C1 263.805 1 263.805 1 263.805L-1 263.805C-1 263.805 -1 263.805 -1 263.805C-1 263.805 -1 263.805 -1 263.805L1 263.805ZM1 263.805C1.00001 311.715 39.8393 350.555 87.75 350.555L87.75 352.555C38.7347 352.555 -0.999991 312.82 -1 263.805L1 263.805Z" fill="#0EA0C0" mask="url(#path-3-inside-2_116_4207)"/>
</svg>
