<svg width="34" height="28" viewBox="0 0 34 28" fill="none" xmlns="http://www.w3.org/2000/svg">
<path d="M5.206 27L23.37 0.399998H28.842L10.678 27H5.206ZM7.638 14.802C6.346 14.802 5.18067 14.5107 4.142 13.928C3.10333 13.3453 2.29267 12.5093 1.71 11.42C1.12733 10.3053 0.836 8.97533 0.836 7.43C0.836 5.88467 1.12733 4.56733 1.71 3.478C2.29267 2.38866 3.10333 1.55266 4.142 0.969998C5.18067 0.361998 6.346 0.0579981 7.638 0.0579981C8.95533 0.0579981 10.1207 0.361998 11.134 0.969998C12.1727 1.55266 12.9833 2.38866 13.566 3.478C14.174 4.56733 14.478 5.88467 14.478 7.43C14.478 8.95 14.174 10.2673 13.566 11.382C12.9833 12.4967 12.1727 13.3453 11.134 13.928C10.1207 14.5107 8.95533 14.802 7.638 14.802ZM7.676 11.192C8.30933 11.192 8.82867 10.9007 9.234 10.318C9.66467 9.73533 9.88 8.77267 9.88 7.43C9.88 6.08733 9.66467 5.12467 9.234 4.542C8.82867 3.95933 8.30933 3.668 7.676 3.668C7.04267 3.668 6.498 3.95933 6.042 4.542C5.61133 5.12467 5.396 6.08733 5.396 7.43C5.396 8.77267 5.61133 9.73533 6.042 10.318C6.498 10.9007 7.04267 11.192 7.676 11.192ZM26.41 27.342C25.0927 27.342 23.9147 27.0507 22.876 26.468C21.8627 25.8853 21.0647 25.0493 20.482 23.96C19.8993 22.8453 19.608 21.5153 19.608 19.97C19.608 18.4247 19.8993 17.1073 20.482 16.018C21.0647 14.9287 21.8627 14.0927 22.876 13.51C23.9147 12.902 25.0927 12.598 26.41 12.598C27.7273 12.598 28.8927 12.902 29.906 13.51C30.9447 14.0927 31.7553 14.9287 32.338 16.018C32.946 17.1073 33.25 18.4247 33.25 19.97C33.25 21.5153 32.946 22.8453 32.338 23.96C31.7553 25.0493 30.9447 25.8853 29.906 26.468C28.8927 27.0507 27.7273 27.342 26.41 27.342ZM26.41 23.732C27.0433 23.732 27.5753 23.4407 28.006 22.858C28.4367 22.2753 28.652 21.3127 28.652 19.97C28.652 18.6273 28.4367 17.6647 28.006 17.082C27.5753 16.4993 27.0433 16.208 26.41 16.208C25.802 16.208 25.27 16.4993 24.814 17.082C24.3833 17.6647 24.168 18.6273 24.168 19.97C24.168 21.3127 24.3833 22.2753 24.814 22.858C25.27 23.4407 25.802 23.732 26.41 23.732Z" fill="white"/>
</svg>
