<svg width="38" height="37" viewBox="0 0 38 37" fill="none" xmlns="http://www.w3.org/2000/svg">
<path fill-rule="evenodd" clip-rule="evenodd" d="M30.1912 33.3004H19.1663L11.4099 30.1982V14.8021H13.2598C13.9609 14.8021 14.6009 14.4062 14.9154 13.7792L19.9321 3.7457L20.6591 3.77344C21.6783 3.77344 22.5089 4.60402 22.5089 5.62327V11.1025H20.6591C19.638 11.1025 18.8093 11.9312 18.8093 12.9523C18.8093 13.9734 19.638 14.8021 20.6591 14.8021H33.2749L30.1912 33.3004ZM4.01071 29.6009H7.71036V14.8022H4.01071V29.6009ZM36.8692 11.7573C36.5177 11.3411 36.0016 11.1024 35.4577 11.1024H26.2086V5.62324C26.2086 2.56363 23.7206 0.0756136 20.7331 0.0756136H20.7294L18.8796 0.00347036C18.1582 -0.0427753 17.4793 0.377135 17.1556 1.02642L12.1166 11.1024H2.16086C1.13976 11.1024 0.311035 11.9312 0.311035 12.9523V31.4505C0.311035 32.4716 1.13976 33.3003 2.16086 33.3003H9.20315L18.123 36.8687C18.3413 36.9556 18.5744 37 18.8093 37H31.7581C32.6626 37 33.434 36.3452 33.582 35.4554L37.2817 13.2575C37.3723 12.721 37.2206 12.1716 36.8692 11.7573Z" fill="white"/>
</svg>
